<svg width="142" height="31" viewBox="0 0 142 31" fill="none" xmlns="http://www.w3.org/2000/svg">
    <g clip-path="url(#a)" fill="#000">
        <path d="M46.002 23.78a8.328 8.328 0 0 1-3.247-3.257c-.788-1.402-1.176-3.025-1.176-4.859 0-1.833.399-3.457 1.208-4.858a8.485 8.485 0 0 1 3.31-3.257c1.397-.77 2.962-1.149 4.686-1.149 1.723 0 3.278.38 4.686 1.15a8.486 8.486 0 0 1 3.31 3.256c.808 1.402 1.207 3.025 1.207 4.858 0 1.834-.41 3.457-1.24 4.859a8.69 8.69 0 0 1-3.361 3.257c-1.408.77-2.984 1.148-4.728 1.148-1.724 0-3.279-.379-4.655-1.148zm6.956-3.405c.724-.4 1.292-1 1.723-1.802.43-.8.64-1.77.64-2.92 0-1.707-.451-3.013-1.344-3.93-.893-.917-1.986-1.38-3.278-1.38-1.293 0-2.354.473-3.226 1.39-.872.917-1.303 2.235-1.303 3.931 0 1.708.42 3.015 1.271 3.932.851.916 1.923 1.38 3.215 1.38.81 0 1.587-.2 2.302-.6zM68.78 7.222c1.02-.548 2.186-.822 3.51-.822 1.524 0 2.91.38 4.15 1.139 1.24.758 2.217 1.833 2.942 3.225.725 1.39 1.082 3.003 1.082 4.848 0 1.834-.357 3.457-1.082 4.88-.725 1.412-1.702 2.508-2.942 3.288-1.24.78-2.616 1.17-4.15 1.17-1.313 0-2.469-.274-3.467-.812-.998-.538-1.818-1.223-2.438-2.045v8.558h-4.518V6.695h4.518v2.593c.568-.822 1.377-1.507 2.396-2.066zm6.4 5.576c-.442-.79-1.02-1.391-1.745-1.803a4.658 4.658 0 0 0-2.343-.61c-.82 0-1.586.21-2.311.632-.725.421-1.303 1.033-1.744 1.833-.442.801-.662 1.74-.662 2.814 0 1.086.22 2.024.662 2.814.441.801 1.019 1.413 1.744 1.834a4.517 4.517 0 0 0 2.311.633c.841 0 1.618-.211 2.343-.643.725-.432 1.303-1.044 1.745-1.845.44-.8.661-1.75.661-2.845 0-1.086-.23-2.024-.661-2.814zM94.722 10.774c.725-1.402 1.702-2.487 2.942-3.235 1.24-.76 2.616-1.139 4.15-1.139 1.335 0 2.501.274 3.51.812.998.537 1.807 1.222 2.406 2.045V6.695h4.428v17.949h-4.428V22.02c-.578.843-1.387 1.538-2.406 2.086-1.019.548-2.207.822-3.541.822-1.503 0-2.879-.39-4.119-1.17-1.24-.78-2.217-1.875-2.942-3.288-.725-1.412-1.082-3.035-1.082-4.88.01-1.802.368-3.414 1.082-4.816zm12.356 2.055c-.43-.79-1.008-1.39-1.744-1.812a4.637 4.637 0 0 0-2.353-.633c-.841 0-1.618.2-2.322.611-.715.412-1.282 1.012-1.723 1.803-.442.79-.662 1.718-.662 2.803 0 1.075.22 2.024.662 2.835.44.812 1.019 1.434 1.744 1.866a4.427 4.427 0 0 0 2.311.643c.841 0 1.629-.211 2.354-.633.735-.421 1.313-1.022 1.744-1.813.431-.79.641-1.728.641-2.835 0-1.096-.221-2.044-.652-2.835zM119.038 16.529v8.115h-4.518V.667h4.518v12.69l5.8-6.662h5.631l-7.323 8.158 8.574 9.78h-5.769l-6.913-8.104z"/>
        <path fill-rule="evenodd" clip-rule="evenodd" d="M90.167 24.57s1.229.021 2.27-.348v-4.236h-2.27a3.332 3.332 0 0 1-3.32-3.33V10.3h3.585V6.4h-3.585V3.513h-4.682v13.153c0 4.363 3.662 7.904 8.002 7.904zM139.662 24.57s1.23.021 2.27-.348v-4.236h-2.27a3.332 3.332 0 0 1-3.32-3.33V10.3h3.571V6.4h-3.571V3.513h-4.681v13.153c0 4.363 3.662 7.904 8.001 7.904z"/>
        <ellipse cx="30.029" cy="15.667" rx="9.24" ry="9.268"/>
        <ellipse cx="9.24" cy="15.667" rx="9.24" ry="9.268"/>
    </g>
    <defs>
        <clipPath id="a">
            <path fill="#fff" transform="translate(0 .667)" d="M0 0h142v30H0z"/>
        </clipPath>
    </defs>
</svg>
